<svg width="235" height="86" viewBox="0 0 235 86" fill="none" xmlns="http://www.w3.org/2000/svg">
<path d="M29.0766 0.271536C29.82 0.271536 30.2103 0.624533 30.2474 1.33053L29.9129 13.1695C29.9129 13.6402 29.7085 13.8755 29.2996 13.8755L24.6161 13.9841C24.263 13.9841 24.0679 13.7759 24.0307 13.3596L23.4452 6.3811C21.1778 5.83803 19.087 5.56649 17.1727 5.56649C15.2585 5.56649 13.6415 5.84708 12.322 6.40825C11.0024 6.95132 9.91521 7.83834 9.06029 9.06931C7.40621 11.4588 6.57917 15.4504 6.57917 21.044C6.57917 29.4979 8.67929 34.5575 12.8796 36.2229C14.2549 36.766 15.9275 37.0375 17.8976 37.0375C19.8676 37.0375 21.9491 36.6936 24.1422 36.0057L24.0028 32.3671C24.04 32.0413 24.263 31.8421 24.6719 31.7697L29.2996 31.0094C29.6155 31.0094 29.8107 31.2176 29.885 31.634L31.0001 42.2239C31.0001 42.5135 30.7864 42.6764 30.3589 42.7126L25.564 43.1199C24.8206 43.1199 24.4303 42.7669 24.3931 42.0609L24.3373 40.9205C21.754 42.2601 19.022 42.9299 16.1413 42.9299C13.2791 42.9299 10.8631 42.4501 8.89302 41.4907C6.94158 40.5313 5.30608 39.1193 3.98653 37.2547C1.32884 33.4713 0 27.9682 0 20.7454C0 13.5768 1.48682 8.2547 4.46045 4.77904C7.17389 1.59301 11.0489 0 16.0855 0C19.245 0 21.9027 0.343946 24.0586 1.03184L29.0766 0.271536Z" fill="black"/>
<path d="M39.5988 26.5562C39.5988 23.4607 39.859 20.8902 40.3793 18.8446C40.9183 16.7809 41.7082 15.1336 42.749 13.9026C44.6818 11.6761 47.832 10.5628 52.1995 10.5628C55.2475 10.5628 57.4684 10.8614 58.8623 11.4588C60.2748 12.0562 61.3806 12.735 62.1798 13.4953C62.9975 14.2556 63.6945 15.2332 64.2706 16.4279C65.4229 18.8718 65.9991 21.9492 65.9991 25.6602C65.9991 29.3531 65.7296 32.2042 65.1906 34.2135C64.6702 36.2229 63.8803 37.834 62.821 39.0469C60.851 41.2554 57.6636 42.3596 53.2589 42.3596C48.6498 42.3596 45.2951 41.2735 43.195 39.1012C40.7975 36.6393 39.5988 32.4576 39.5988 26.5562ZM58.5836 35.001C59.1411 34.2769 59.5593 33.2632 59.8381 31.9598C60.1168 30.6564 60.2562 29.0634 60.2562 27.1808C60.2562 25.2981 60.154 23.7775 59.9496 22.619C59.7451 21.4604 59.4571 20.501 59.0854 19.7407C58.7322 18.9623 58.3048 18.3558 57.803 17.9214C57.3012 17.4688 56.7529 17.1339 56.1582 16.9167C55.2661 16.5909 54.0859 16.4279 52.6177 16.4279C51.1495 16.4279 49.9786 16.5365 49.1051 16.7538C48.2316 16.971 47.5068 17.4326 46.9306 18.1386C45.8341 19.5144 45.2858 22.2841 45.2858 26.4476C45.2858 32.3671 46.9213 35.707 50.1923 36.4673C51.1959 36.7026 52.2832 36.8203 53.454 36.8203C54.6249 36.8203 55.6285 36.7026 56.4648 36.4673C57.3198 36.2139 58.026 35.7251 58.5836 35.001Z" fill="black"/>
<path d="M98.935 11.9476C99.2324 11.9476 99.3811 12.1648 99.3811 12.5993L99.6599 35.5169L103.395 35.3812C103.767 35.3993 103.953 35.6165 103.953 36.0328L103.451 41.0019C103.433 41.3821 103.21 41.5722 102.782 41.5722H95.8963C95.3202 41.5722 94.9392 41.2282 94.7534 40.5403L94.0843 37.7978C91.0177 40.3684 87.5237 41.6536 83.6022 41.6536C78.1196 41.6536 75.3783 38.2413 75.3783 31.4167C75.3783 29.0453 75.5177 26.4024 75.7964 23.4879L76.354 17.3512L72.7856 17.4598C72.3953 17.4598 72.2002 17.2425 72.2002 16.8081L72.7578 12.0019C72.7949 11.7847 72.8507 11.6489 72.925 11.5946C73.018 11.5222 73.1759 11.4769 73.3989 11.4588L82.2641 11.6761C82.5243 11.6761 82.6544 11.8752 82.6544 12.2734C82.5615 13.1423 82.4685 14.1199 82.3756 15.206C81.595 23.3702 81.2047 28.4117 81.2047 30.3306C81.2047 32.2494 81.5764 33.6433 82.3198 34.5122C83.0633 35.3631 84.4014 35.7885 86.3343 35.7885C88.2671 35.7885 90.7297 34.8652 93.7219 33.0188V17.4055L90.2372 17.2154C89.977 17.1792 89.819 17.0253 89.7632 16.7538L90.2929 12.2734C90.3672 11.8752 90.5717 11.6761 90.9062 11.6761L98.935 11.9476Z" fill="black"/>
<path d="M128.303 17.2968C125.942 17.2968 123.247 18.2382 120.218 20.1208L120.553 36.3858L123.591 36.06C123.907 36.06 124.065 36.2139 124.065 36.5216L123.536 40.7304C123.461 41.1287 123.257 41.3278 122.922 41.3278H111.297C111 41.3278 110.851 41.1106 110.851 40.6761L111.409 36.5216C111.483 36.1415 111.687 35.9514 112.022 35.9514H114.392V18.0028L110.126 17.8942C109.755 17.8942 109.569 17.677 109.569 17.2425L110.071 12.545C110.108 12.2372 110.331 12.0472 110.74 11.9747L118.462 10.8614C118.796 10.8614 118.964 11.0696 118.964 11.486V16.1835C122.792 12.4545 126.556 10.5899 130.254 10.5899C134.492 10.5899 137.019 12.554 137.837 16.4822C138.097 17.7856 138.227 19.0075 138.227 20.148C138.227 21.2703 138.218 22.2207 138.199 22.9991C138.181 23.7594 138.153 24.6012 138.116 25.5244L138.06 28.3484C138.023 29.344 137.986 30.3396 137.948 31.3353L137.837 34.2135C137.8 35.1368 137.763 35.9876 137.725 36.766L140.931 36.6302C141.322 36.6302 141.517 36.8474 141.517 37.2819V41.2735C141.517 41.4907 141.461 41.6355 141.349 41.7079C141.257 41.7623 141.099 41.7985 140.876 41.8166L132.791 42.4139C132.382 42.4139 132.178 42.2148 132.178 41.8166C132.233 39.8434 132.261 37.9879 132.261 36.2501L132.317 31.7154C132.317 30.4301 132.317 29.2263 132.317 28.104V23.1349C132.317 20.8902 132.122 19.4601 131.732 18.8446C131.341 18.211 130.886 17.7947 130.366 17.5955C129.845 17.3964 129.158 17.2968 128.303 17.2968Z" fill="black"/>
<path d="M163.079 41.6536C162.186 41.7079 160.867 41.7351 159.12 41.7351C157.391 41.7351 155.979 41.5631 154.882 41.2192C153.805 40.8752 152.912 40.3231 152.206 39.5628C150.812 38.0603 150.115 35.6436 150.115 32.3128C150.115 30.1586 150.143 28.104 150.199 26.1489C150.273 24.1758 150.329 22.4289 150.366 20.9083C150.422 19.3696 150.478 17.849 150.534 16.3465L146.826 16.0749C146.454 16.0568 146.268 15.8125 146.268 15.3418L146.24 12.2191C146.24 11.8209 146.445 11.6217 146.854 11.6217L150.757 11.5403C150.794 10.599 150.831 9.70289 150.868 8.85208L151.091 4.75188C151.147 3.79245 151.221 3.24938 151.314 3.12266C151.407 2.97785 151.574 2.88733 151.816 2.85113L157.001 2.25375C157.391 2.25375 157.587 2.45288 157.587 2.85113C157.587 3.43041 157.484 4.74283 157.28 6.7884L156.862 11.3774L167.79 11.0787C168.199 11.0787 168.403 11.2959 168.403 11.7304V16.1564C168.403 16.5184 168.199 16.7085 167.79 16.7266L156.499 16.265C156.183 20.501 156.025 24.1939 156.025 27.3437C156.025 30.4935 156.091 32.53 156.221 33.4532C156.369 34.3765 156.629 35.0915 157.001 35.5984C157.633 36.4673 158.981 36.9018 161.043 36.9018C161.638 36.9018 162.177 36.8837 162.66 36.8474C162.605 36.2139 162.577 35.7432 162.577 35.4355C162.577 35.1096 162.753 34.9195 163.106 34.8652L167.762 34.3222C168.152 34.3222 168.347 34.5303 168.347 34.9467L168.459 41.8437C168.459 42.1515 168.32 42.3325 168.041 42.3868L163.915 43.0385C163.487 43.0023 163.246 42.8303 163.19 42.5226L163.079 41.6536Z" fill="black"/>
<path d="M175.385 42.1424C175.088 42.1424 174.939 41.9252 174.939 41.4907V36.7931C174.939 36.413 175.143 36.2229 175.552 36.2229H178.814V17.8399L174.827 18.1658C174.53 18.1477 174.344 17.9304 174.27 17.5141L173.657 11.7304C173.712 11.3864 173.935 11.1963 174.326 11.1601L182.884 10.5899C183.219 10.5899 183.386 10.7981 183.386 11.2144L182.968 15.6948C185.068 13.432 188.153 11.9295 192.223 11.1873C193.45 10.952 194.63 10.8343 195.764 10.8343C196.897 10.8343 197.483 11.1239 197.52 11.7032L197.854 21.6414C197.854 21.9673 197.715 22.1483 197.436 22.1845L192.195 22.5646C191.972 22.5646 191.796 22.5284 191.666 22.456C191.535 22.3836 191.47 22.1935 191.47 21.8858V17.0796C189.054 17.2787 186.926 17.7494 185.086 18.4916L184.78 36.413L189.631 36.06C189.928 36.06 190.086 36.2139 190.104 36.5216L190.411 41.0019C190.355 41.364 190.151 41.5631 189.798 41.5993L175.385 42.1424Z" fill="black"/>
<path d="M202.299 11.9476C202.299 11.5855 202.513 11.4045 202.941 11.4045L215.597 11.133C215.932 11.133 216.099 11.3321 216.099 11.7304L216.238 16.3465C216.201 16.5818 216.145 16.7357 216.071 16.8081C215.997 16.8805 215.848 16.9167 215.625 16.9167L211.973 16.9982L219.221 36.9561L225.8 16.8624L221.981 17.2154C221.684 17.2154 221.526 17.0615 221.507 16.7538L221.758 11.7304C221.777 11.3321 221.981 11.133 222.371 11.133L234.554 10.8614C234.851 10.8795 235 11.0968 235 11.5131L234.721 16.2107C234.684 16.5909 234.48 16.7809 234.108 16.7809L231.655 16.5637L218.218 53.4926C218.069 53.9271 217.846 54.1443 217.548 54.1443L212.029 52.678C211.62 52.6237 211.415 52.4427 211.415 52.1349C211.415 52.0082 211.453 51.8815 211.527 51.7548L217.632 40.3774L215.235 40.4589C214.993 40.4589 214.789 40.296 214.621 39.9701L205.254 17.1339L202.606 17.1882C202.216 17.1882 202.021 16.971 202.021 16.5365L202.299 11.9476Z" fill="black"/>
<path d="M14.5584 68.8895C17.4856 69.4778 18.9491 71.1161 18.9491 73.8043C18.9491 76.9994 17.388 78.9228 14.2657 79.5744C13.2435 79.7826 12.2492 79.8867 11.2827 79.8867C10.3163 79.8867 9.47533 79.8686 8.7598 79.8324C8.04427 79.8052 7.34268 79.7645 6.65503 79.7102C4.34117 79.5292 3.12384 79.3482 3.00303 79.1671C2.95657 79.0947 2.92869 79.0042 2.9194 78.8956L3.04485 76.8998C3.06343 76.6464 3.21212 76.5197 3.49089 76.5197C3.76967 76.5197 4.32258 76.574 5.14962 76.6826V61.7617C4.40622 61.8069 3.87189 61.8296 3.54665 61.8296C3.2307 61.8296 3.06343 61.7028 3.04485 61.4494L2.9194 59.5487C2.93798 59.3043 3.04949 59.164 3.25393 59.1278C5.40052 58.7567 7.73761 58.5711 10.2652 58.5711C15.2182 58.5711 17.6946 60.4673 17.6946 64.2598C17.6946 66.1244 17.0906 67.4549 15.8826 68.2514C15.4923 68.5139 15.0509 68.7266 14.5584 68.8895ZM8.27194 77.0356C9.10827 77.0808 9.88885 77.1035 10.6137 77.1035C11.3385 77.1035 12.0262 77.0673 12.6766 76.9948C13.3364 76.9134 13.9033 76.7595 14.3772 76.5332C15.3808 76.0445 15.8826 75.1439 15.8826 73.8315C15.8826 72.0031 14.8883 70.9667 12.8997 70.7224C12.3142 70.65 11.608 70.6137 10.7809 70.6137C9.96319 70.6137 9.12686 70.6545 8.27194 70.7359V77.0356ZM12.0215 61.463C11.5104 61.3815 10.9621 61.3408 10.3767 61.3408C9.79128 61.3408 9.08969 61.3815 8.27194 61.463V68.0749C8.54143 68.093 8.81091 68.102 9.0804 68.102H9.90279C11.4268 68.102 12.5558 67.8712 13.2899 67.4096C14.1542 66.8756 14.5863 65.9388 14.5863 64.5992C14.5863 62.7799 13.7313 61.7345 12.0215 61.463Z" fill="black"/>
<path d="M31.5209 64.0562C34.2715 64.0562 35.6468 65.7216 35.6468 69.0524C35.6468 69.8399 35.6283 70.8581 35.5911 72.1072L35.4935 74.7682C35.4749 75.3023 35.4517 75.8091 35.4238 76.2888L35.3681 77.5787L36.2044 77.5108C36.5111 77.4927 36.8595 77.4655 37.2498 77.4293C37.445 77.4293 37.5425 77.5153 37.5425 77.6873L37.2916 79.8324C37.2638 79.9953 37.1615 80.0858 36.985 80.1039L32.9566 80.3483C32.8265 80.3483 32.7615 80.2488 32.7615 80.0496L32.9566 78.4611C31.4048 79.6287 29.7182 80.2125 27.8968 80.2125C26.475 80.2125 25.3042 79.8098 24.3842 79.0042C23.4085 78.1534 22.9206 77.0084 22.9206 75.5693C22.9206 73.6957 23.585 72.3787 24.9139 71.6184C26.0848 70.9486 28.013 70.6137 30.6985 70.6137C31.2561 70.6137 31.8508 70.6273 32.4827 70.6545C32.492 70.4191 32.4966 70.2019 32.4966 70.0028V69.4869C32.4966 67.7219 31.7021 66.8394 30.1131 66.8394C29.2861 66.8394 28.2639 67.0838 27.0465 67.5725L27.1023 68.0885C27.1209 68.2604 27.1302 68.3962 27.1302 68.4958C27.1302 68.6949 27.028 68.7945 26.8235 68.7945L24.4678 68.8352C24.3006 68.808 24.2076 68.7085 24.1891 68.5365L23.9521 64.6535C23.9521 64.4363 24.0543 64.3141 24.2588 64.287L26.5866 63.9883C26.7817 63.9883 26.8793 64.0878 26.8793 64.287V65.4138C28.5426 64.5087 30.0899 64.0562 31.5209 64.0562ZM28.8725 77.6465C29.9412 77.6465 31.1167 77.3478 32.3991 76.7505C32.4177 76.1531 32.427 75.4969 32.427 74.7818C32.4362 74.0577 32.4502 73.3427 32.4688 72.6367C30.0248 72.6367 28.3289 72.8403 27.3811 73.2477C26.5076 73.6278 26.0708 74.2614 26.0708 75.1484C26.0708 76.8138 27.0047 77.6465 28.8725 77.6465Z" fill="black"/>
<path d="M41.1655 79.846C41.0169 79.846 40.9425 79.7374 40.9425 79.5201V77.1713C40.9425 76.9813 41.0447 76.8862 41.2492 76.8862H42.88V67.6947L40.8868 67.8577C40.7381 67.8486 40.6451 67.74 40.608 67.5318L40.3013 64.64C40.3292 64.468 40.4407 64.3729 40.6359 64.3548L44.9151 64.0697C45.0824 64.0697 45.166 64.1738 45.166 64.382L44.9569 66.6222C46.007 65.4908 47.5496 64.7395 49.5846 64.3684C50.1979 64.2508 50.788 64.1919 51.3549 64.1919C51.9217 64.1919 52.2144 64.3367 52.233 64.6264L52.4003 69.5955C52.4003 69.7584 52.3306 69.8489 52.1912 69.867L49.5707 70.0571C49.4592 70.0571 49.3709 70.039 49.3059 70.0028C49.2408 69.9666 49.2083 69.8716 49.2083 69.7177V67.3146C48.0002 67.4141 46.9362 67.6495 46.0163 68.0206L45.8629 76.9813L48.2883 76.8048C48.437 76.8048 48.516 76.8817 48.5253 77.0356L48.6786 79.2757C48.6507 79.4568 48.5485 79.5563 48.3719 79.5744L41.1655 79.846Z" fill="black"/>
<path d="M65.7248 67.4232C64.5446 67.4232 63.1972 67.8939 61.6825 68.8352L61.8498 76.9677L63.3691 76.8048C63.5271 76.8048 63.6061 76.8817 63.6061 77.0356L63.3412 79.14C63.3041 79.3391 63.2018 79.4387 63.0346 79.4387H57.222C57.0734 79.4387 56.999 79.3301 56.999 79.1128L57.2778 77.0356C57.315 76.8455 57.4172 76.7505 57.5844 76.7505H58.7693V67.7762L56.6366 67.7219C56.4508 67.7219 56.3578 67.6133 56.3578 67.396L56.6087 65.0473C56.6273 64.8934 56.7388 64.7984 56.9433 64.7621L60.8043 64.2055C60.9716 64.2055 61.0552 64.3096 61.0552 64.5178V66.8665C62.9695 65.002 64.8513 64.0697 66.7005 64.0697C68.8192 64.0697 70.083 65.0518 70.4919 67.0159C70.622 67.6676 70.687 68.2785 70.687 68.8488C70.687 69.4099 70.6824 69.8851 70.6731 70.2743C70.6638 70.6545 70.6499 71.0754 70.6313 71.537L70.6034 72.949C70.5848 73.4468 70.5662 73.9446 70.5476 74.4424L70.4919 75.8815C70.4733 76.3432 70.4547 76.7686 70.4361 77.1578L72.0391 77.0899C72.2342 77.0899 72.3318 77.1985 72.3318 77.4157V79.4115C72.3318 79.5201 72.3039 79.5925 72.2482 79.6287C72.2017 79.6559 72.1227 79.674 72.0112 79.6831L67.9689 79.9817C67.7645 79.9817 67.6623 79.8822 67.6623 79.6831C67.6902 78.6965 67.7041 77.7687 67.7041 76.8998L67.732 74.6325C67.732 73.9898 67.732 73.3879 67.732 72.8268V70.3422C67.732 69.2199 67.6344 68.5048 67.4393 68.1971C67.2441 67.8803 67.0164 67.6721 66.7563 67.5725C66.4961 67.473 66.1522 67.4232 65.7248 67.4232Z" fill="black"/>
<path d="M97.573 68.8895C100.5 69.4778 101.964 71.1161 101.964 73.8043C101.964 76.9994 100.403 78.9228 97.2802 79.5744C96.258 79.7826 95.2637 79.8867 94.2973 79.8867C93.3309 79.8867 92.4899 79.8686 91.7744 79.8324C91.0588 79.8052 90.3572 79.7645 89.6696 79.7102C87.3557 79.5292 86.1384 79.3482 86.0176 79.1671C85.9711 79.0947 85.9433 79.0042 85.934 78.8956L86.0594 76.8998C86.078 76.6464 86.2267 76.5197 86.5055 76.5197C86.7842 76.5197 87.3371 76.574 88.1642 76.6826V61.7617C87.4208 61.8069 86.8865 61.8296 86.5612 61.8296C86.2453 61.8296 86.078 61.7028 86.0594 61.4494L85.934 59.5487C85.9525 59.3043 86.0641 59.164 86.2685 59.1278C88.4151 58.7567 90.7522 58.5711 93.2798 58.5711C98.2327 58.5711 100.709 60.4673 100.709 64.2598C100.709 66.1244 100.105 67.4549 98.8971 68.2514C98.5069 68.5139 98.0655 68.7266 97.573 68.8895ZM91.2865 77.0356C92.1228 77.0808 92.9034 77.1035 93.6282 77.1035C94.3531 77.1035 95.0407 77.0673 95.6912 76.9948C96.351 76.9134 96.9178 76.7595 97.3917 76.5332C98.3953 76.0445 98.8971 75.1439 98.8971 73.8315C98.8971 72.0031 97.9028 70.9667 95.9142 70.7224C95.3288 70.65 94.6226 70.6137 93.7955 70.6137C92.9778 70.6137 92.1414 70.6545 91.2865 70.7359V77.0356ZM95.0361 61.463C94.525 61.3815 93.9767 61.3408 93.3913 61.3408C92.8058 61.3408 92.1043 61.3815 91.2865 61.463V68.0749C91.556 68.093 91.8255 68.102 92.095 68.102H92.9174C94.4413 68.102 95.5704 67.8712 96.3045 67.4096C97.1687 66.8756 97.6008 65.9388 97.6008 64.5992C97.6008 62.7799 96.7459 61.7345 95.0361 61.463Z" fill="black"/>
<path d="M118.355 64.7486C118.503 64.7486 118.578 64.8572 118.578 65.0744L118.717 76.5332L120.585 76.4653C120.771 76.4744 120.864 76.583 120.864 76.7912L120.613 79.2757C120.604 79.4658 120.492 79.5609 120.278 79.5609H116.835C116.547 79.5609 116.357 79.3889 116.264 79.0449L115.929 77.6737C114.396 78.959 112.649 79.6016 110.688 79.6016C107.947 79.6016 106.576 77.8954 106.576 74.4831C106.576 73.2974 106.646 71.976 106.785 70.5187L107.064 67.4504L105.28 67.5047C105.085 67.5047 104.987 67.396 104.987 67.1788L105.266 64.7757C105.285 64.6671 105.313 64.5992 105.35 64.5721C105.396 64.5359 105.475 64.5132 105.587 64.5042L110.019 64.6128C110.149 64.6128 110.214 64.7124 110.214 64.9115C110.168 65.3459 110.122 65.8347 110.075 66.3778C109.685 70.4599 109.49 72.9806 109.49 73.9401C109.49 74.8995 109.675 75.5964 110.047 76.0309C110.419 76.4563 111.088 76.669 112.054 76.669C113.021 76.669 114.252 76.2074 115.748 75.2842V67.4775L114.006 67.3825C113.876 67.3644 113.797 67.2874 113.769 67.1517L114.034 64.9115C114.071 64.7124 114.173 64.6128 114.34 64.6128L118.355 64.7486Z" fill="black"/>
<path d="M124.375 79.8731C124.245 79.8731 124.18 79.7645 124.18 79.5473V77.4972C124.18 77.3252 124.254 77.2392 124.403 77.2392H126.076L126.187 67.749L123.929 67.5182C123.762 67.5001 123.678 67.4006 123.678 67.2195L123.985 64.9794C124.022 64.8165 124.134 64.7214 124.32 64.6943L128.794 64.2462C128.896 64.2462 128.961 64.2734 128.989 64.3277C129.017 64.3729 129.036 64.4499 129.045 64.5585L129.226 67.0295L129.184 77.2392H130.773C130.922 77.2392 130.996 77.3252 130.996 77.4972L130.745 79.2757C130.727 79.3844 130.694 79.4568 130.648 79.493C130.611 79.5201 130.532 79.5382 130.411 79.5473L124.375 79.8731ZM128.71 61.1914C128.534 61.3272 128.297 61.4177 127.999 61.463C127.702 61.5082 127.344 61.5309 126.926 61.5309C126.517 61.5309 126.201 61.5082 125.978 61.463C125.765 61.4177 125.593 61.3363 125.462 61.2186C125.249 61.0014 125.142 60.6167 125.142 60.0646C125.142 59.5124 125.17 59.1187 125.226 58.8834C125.291 58.639 125.407 58.4489 125.574 58.3132C125.862 58.0778 126.331 57.9602 126.982 57.9602C127.642 57.9602 128.083 57.9783 128.306 58.0145C128.529 58.0416 128.706 58.114 128.836 58.2317C129.059 58.4218 129.17 58.8019 129.17 59.3722C129.17 59.9424 129.138 60.3542 129.073 60.6076C129.008 60.8611 128.887 61.0557 128.71 61.1914Z" fill="black"/>
<path d="M134.717 61.2729C134.55 61.2729 134.466 61.1733 134.466 60.9742L134.55 58.3132C134.55 58.2045 134.577 58.1367 134.633 58.1095C134.689 58.0733 134.773 58.0462 134.884 58.028L139.414 58.1367C139.516 58.1367 139.581 58.1638 139.609 58.2181C139.637 58.2634 139.656 58.3403 139.665 58.4489L139.568 60.6076L139.777 76.8455L141.672 76.6962C141.802 76.6962 141.877 76.7821 141.895 76.9541L142.063 79.4115C142.044 79.5201 142.012 79.5925 141.965 79.6287C141.928 79.6559 141.849 79.674 141.728 79.6831L134.159 79.6016C134.029 79.6016 133.964 79.493 133.964 79.2757V76.9541C133.964 76.7821 134.038 76.6962 134.187 76.6962L136.822 76.8591V61.11L134.717 61.2729Z" fill="black"/>
<path d="M152.808 60.4719C152.623 60.4719 152.53 60.3633 152.53 60.146L152.669 57.9737C152.688 57.7927 152.794 57.7022 152.99 57.7022L157.771 57.9602C157.938 57.9783 158.022 58.0824 158.022 58.2724V77.3343L159.485 77.1849C159.671 77.1849 159.764 77.2709 159.764 77.4429L159.513 79.5473C159.485 79.7012 159.378 79.7917 159.192 79.8188L155.736 80.3619C155.559 80.3619 155.471 80.2623 155.471 80.0632L155.582 78.7191C154.021 79.3436 152.623 79.6559 151.387 79.6559C150.16 79.6559 149.17 79.493 148.418 79.1671C147.665 78.8413 147.056 78.3525 146.592 77.7008C145.755 76.497 145.337 74.5058 145.337 71.727C145.337 67.7083 146.401 65.2826 148.529 64.4499C149.245 64.1693 150.216 64.029 151.442 64.029C152.669 64.029 153.965 64.2824 155.331 64.7893L155.15 60.5126L152.808 60.4719ZM155.415 67.5454C154.086 67.2286 152.999 67.0702 152.153 67.0702C151.317 67.0702 150.676 67.1336 150.23 67.2603C149.793 67.387 149.435 67.6269 149.156 67.9799C148.617 68.6587 148.348 69.9575 148.348 71.8764C148.348 73.7862 148.562 75.0805 148.989 75.7594C149.454 76.4925 150.341 76.8591 151.651 76.8591C152.729 76.8591 153.886 76.6826 155.122 76.3296L155.415 67.5454Z" fill="black"/>
<path d="M173.228 79.6016C172.038 79.8912 170.528 80.036 168.698 80.036C166.83 80.036 165.473 79.4749 164.628 78.3525C163.745 77.1849 163.303 75.334 163.303 72.7996C163.303 70.1386 163.68 68.1518 164.432 66.8394C165.287 65.3912 166.653 64.5087 168.53 64.1919C169.181 64.0833 169.906 64.029 170.705 64.029C172.424 64.029 173.674 64.4408 174.454 65.2645C175.235 66.0881 175.625 67.3463 175.625 69.0388C175.625 70.1431 175.426 70.9939 175.026 71.5913C174.896 71.7814 174.719 71.9986 174.496 72.243C174.273 72.4783 173.86 72.691 173.256 72.8811C172.661 73.0621 171.978 73.2024 171.207 73.302C170.008 73.4468 168.358 73.5192 166.258 73.5192C166.379 75.0488 166.765 76.0897 167.415 76.6418C167.908 77.0763 168.763 77.2935 169.98 77.2935C171.123 77.2935 172.261 77.1985 173.395 77.0084L173.437 76.3024C173.446 76.1938 173.469 76.1214 173.507 76.0852C173.553 76.049 173.632 76.0173 173.744 75.9902L175.751 75.5557C175.955 75.5557 176.071 75.6417 176.099 75.8137C176.127 75.9675 176.155 76.2708 176.183 76.7233C176.211 77.1668 176.239 77.5515 176.266 77.8773C176.294 78.2032 176.318 78.5155 176.336 78.8141L176.392 79.5744C176.401 79.8007 176.406 79.9908 176.406 80.1447C176.406 80.4162 176.201 80.5746 175.793 80.6199L173.479 80.8914C173.274 80.8914 173.172 80.7918 173.172 80.5927L173.228 79.6016ZM171.931 70.7088C172.173 70.5006 172.317 70.2607 172.364 69.9892C172.419 69.7086 172.447 69.3828 172.447 69.0117C172.447 68.6315 172.41 68.2966 172.336 68.007C172.271 67.7174 172.155 67.4685 171.987 67.2603C171.625 66.8258 171.035 66.6086 170.217 66.6086C168.637 66.6086 167.583 66.9978 167.053 67.7762C166.551 68.5003 166.272 69.7494 166.217 71.5234C169.46 71.4781 171.365 71.2066 171.931 70.7088Z" fill="black"/>
<path d="M181.13 79.846C180.981 79.846 180.907 79.7374 180.907 79.5201V77.1713C180.907 76.9813 181.009 76.8862 181.214 76.8862H182.845V67.6947L180.851 67.8577C180.703 67.8486 180.61 67.74 180.572 67.5318L180.266 64.64C180.294 64.468 180.405 64.3729 180.6 64.3548L184.88 64.0697C185.047 64.0697 185.131 64.1738 185.131 64.382L184.921 66.6222C185.971 65.4908 187.514 64.7395 189.549 64.3684C190.162 64.2508 190.753 64.1919 191.319 64.1919C191.886 64.1919 192.179 64.3367 192.198 64.6264L192.365 69.5955C192.365 69.7584 192.295 69.8489 192.156 69.867L189.535 70.0571C189.424 70.0571 189.335 70.039 189.27 70.0028C189.205 69.9666 189.173 69.8716 189.173 69.7177V67.3146C187.965 67.4141 186.901 67.6495 185.981 68.0206L185.827 76.9813L188.253 76.8048C188.402 76.8048 188.48 76.8817 188.49 77.0356L188.643 79.2757C188.615 79.4568 188.513 79.5563 188.336 79.5744L181.13 79.846Z" fill="black"/>
<path d="M206.818 68.102C204.309 67.2693 202.539 66.853 201.508 66.853C200.392 66.853 199.64 67.12 199.249 67.654C199.092 67.8622 199.013 68.1201 199.013 68.4279C199.013 68.7356 199.05 69.0026 199.124 69.2289C199.198 69.4552 199.333 69.6543 199.528 69.8263C199.919 70.1883 200.671 70.4554 201.786 70.6273C202.901 70.7993 203.873 70.9894 204.7 71.1975C205.536 71.3967 206.205 71.6592 206.707 71.985C207.218 72.3018 207.58 72.7046 207.794 73.1933C208.017 73.6821 208.129 74.3112 208.129 75.0805C208.129 75.8408 208.012 76.5151 207.78 77.1035C207.548 77.6918 207.218 78.1896 206.79 78.5969C205.926 79.4025 204.727 79.8052 203.194 79.8052C202.144 79.8052 200.936 79.6785 199.57 79.4251L199.807 80.552C199.807 80.6968 199.7 80.7782 199.486 80.7963L197.089 81C196.736 81 196.541 80.8235 196.504 80.4705L196.113 76.4382C196.113 76.2753 196.225 76.1757 196.448 76.1395L198.622 75.7594C198.78 75.7594 198.878 75.8634 198.915 76.0716L199.082 76.9677C200.43 77.1759 201.54 77.28 202.414 77.28C203.287 77.28 203.938 77.1035 204.365 76.7505C204.793 76.3884 205.006 75.9132 205.006 75.3249C205.006 74.7728 204.779 74.379 204.323 74.1437C203.924 73.9265 203.138 73.7319 201.968 73.5599C200.806 73.3789 199.849 73.1843 199.096 72.9761C198.343 72.7589 197.726 72.4738 197.242 72.1208C196.322 71.451 195.862 70.3151 195.862 68.713C195.862 67.3191 196.294 66.2058 197.159 65.3731C198.079 64.4951 199.366 64.0562 201.02 64.0562C201.995 64.0562 203.12 64.3729 204.393 65.0065L204.128 63.934C204.128 63.7167 204.226 63.5991 204.421 63.581L207.181 63.3637C207.329 63.3637 207.404 63.4678 207.404 63.676L207.097 67.8169C207.088 68.007 206.995 68.102 206.818 68.102Z" fill="black"/>
<line x1="4" y1="52.5" x2="207" y2="52.5" stroke="#910000" stroke-width="3"/>
</svg>
